<svg id="Layer_1" data-name="Layer 1" xmlns="http://www.w3.org/2000/svg" viewBox="0 0 486 251.85"><defs><style>.cls-1{fill:#2b2b2b;}.cls-2{fill:#ff4500;}.cls-3{fill:#fff;}</style></defs><rect class="cls-1" width="486" height="251.85" rx="125.92"/><rect class="cls-2" x="32.52" y="31.83" width="210.33" height="188.19" rx="94.1"/><path class="cls-3" d="M102.48,293.86a6.54,6.54,0,0,1-1.65,4.66,6.65,6.65,0,0,1-9.13,0,6.54,6.54,0,0,1-1.65-4.66V209.17a7.36,7.36,0,0,1,1.56-4.66,5.91,5.91,0,0,1,4.93-1.92h22.29a33.87,33.87,0,0,1,11.24,1.92,28.05,28.05,0,0,1,16.17,13.62,23.17,23.17,0,0,1,2.47,10.78,32.45,32.45,0,0,1-2.11,12.6,22.35,22.35,0,0,1-14.16,13.25,37.74,37.74,0,0,1-10.32,1.83h-5.21l31.16,33.53a7.32,7.32,0,0,1,2.28,5.3,4,4,0,0,1-1.55,3.29,5.66,5.66,0,0,1-3.93,1.27,6.15,6.15,0,0,1-3.11-.73,15.61,15.61,0,0,1-2.37-1.91l-36.91-40.48Zm0-46.13h16.44a19,19,0,0,0,13.8-4.3,18.3,18.3,0,0,0,4-14,15.09,15.09,0,0,0-1.28-6.39,16,16,0,0,0-3.66-5.3A18.91,18.91,0,0,0,118.47,213h-16Z" transform="translate(-13 -130.08)"/><path class="cls-3" d="M169.26,268.37a23.21,23.21,0,0,0,1.46,8.41,19.57,19.57,0,0,0,4.21,6.85,20.32,20.32,0,0,0,6.76,4.48,23.37,23.37,0,0,0,9.13,1.64,26.65,26.65,0,0,0,10.05-1.55,35.12,35.12,0,0,0,6.67-3.38c1.74-1.28,3.29-2.38,4.48-3.38a5.79,5.79,0,0,1,3.47-1.55,4.2,4.2,0,0,1,3,1.37,5.67,5.67,0,0,1,1.37,4,7.4,7.4,0,0,1-2.47,4.75,29.54,29.54,0,0,1-6.76,4.93,49.19,49.19,0,0,1-9.14,3.75,37.65,37.65,0,0,1-10.5,1.46,34.79,34.79,0,0,1-15.08-3,29.47,29.47,0,0,1-10.41-8,32.81,32.81,0,0,1-6-11.69,48.56,48.56,0,0,1-1.92-13.71,41.22,41.22,0,0,1,2.28-13.79,36.7,36.7,0,0,1,6.4-11.7,29.4,29.4,0,0,1,10.32-7.94,30.22,30.22,0,0,1,13.7-3,29,29,0,0,1,13.34,3.11,31,31,0,0,1,9.87,7.85A37.85,37.85,0,0,1,219,249.37a40.64,40.64,0,0,1,2.1,12.7,7.14,7.14,0,0,1-1.37,4.75,6.92,6.92,0,0,1-5.39,1.55Zm40-9.13a24.77,24.77,0,0,0-1.19-7.59,20.86,20.86,0,0,0-3.47-6.94,17.85,17.85,0,0,0-14.71-7.12,17.7,17.7,0,0,0-9.14,1.73,19.15,19.15,0,0,0-6.3,4.93,21.92,21.92,0,0,0-3.65,7.13,34.31,34.31,0,0,0-1.28,7.86Z" transform="translate(-13 -130.08)"/><path class="cls-3" d="M267.75,209.17a7.29,7.29,0,0,1,1.55-4.66,5.93,5.93,0,0,1,4.94-1.92H297.9A44.34,44.34,0,0,1,317,206.52a39.5,39.5,0,0,1,13.52,10.6,43.72,43.72,0,0,1,8,15.35,60.17,60.17,0,0,1,2.65,18.27,68.08,68.08,0,0,1-2.74,20,47,47,0,0,1-8.22,15.62,37.62,37.62,0,0,1-13.06,10.14,41.67,41.67,0,0,1-17.64,3.57h-25.3a6,6,0,0,1-4.94-1.92,7.29,7.29,0,0,1-1.55-4.66Zm12.06,80.58h17.27a29.9,29.9,0,0,0,14.52-3.29,27.3,27.3,0,0,0,9.14-8.68,38.31,38.31,0,0,0,5.48-12.42,63.91,63.91,0,0,0,2.38-14.53,57.33,57.33,0,0,0-1.74-14.34,35,35,0,0,0-5.66-12.06,28.28,28.28,0,0,0-9.87-8.31,33.32,33.32,0,0,0-14.8-3.11H280.08Z" transform="translate(-13 -130.08)"/><path class="cls-3" d="M413.74,294.41a5.1,5.1,0,0,1-1.92,4.48,6.4,6.4,0,0,1-3.74,1.28,6.27,6.27,0,0,1-3.75-1.28,5.3,5.3,0,0,1-1.82-4.48v-4.93h0a26.82,26.82,0,0,1-9.14,8.13,23.7,23.7,0,0,1-11,2.56,29.86,29.86,0,0,1-13.62-3,30.87,30.87,0,0,1-10.05-8,35.13,35.13,0,0,1-6.21-11.69,43.69,43.69,0,0,1,0-27.41,35.23,35.23,0,0,1,6.12-11.42,32.43,32.43,0,0,1,10.05-8.13,31.13,31.13,0,0,1,13.62-3,23.22,23.22,0,0,1,11,2.56,35.68,35.68,0,0,1,9.13,7.22h0v-3.84a5.54,5.54,0,0,1,1.83-4.57,7.14,7.14,0,0,1,3.75-1.37,6.58,6.58,0,0,1,3.74,1.37,5.11,5.11,0,0,1,1.92,4.48ZM363.4,272.85a26.39,26.39,0,0,0,3.38,8.41,20,20,0,0,0,6.22,6.12,19.67,19.67,0,0,0,18.27,0,19.93,19.93,0,0,0,6.21-6.12,26.16,26.16,0,0,0,3.38-8.41,41.72,41.72,0,0,0,0-18.27,26.16,26.16,0,0,0-3.38-8.41,19.93,19.93,0,0,0-6.21-6.12,19,19,0,0,0-18.27,0,20,20,0,0,0-6.22,6.12,26.39,26.39,0,0,0-3.38,8.41A38.4,38.4,0,0,0,363.4,272.85Z" transform="translate(-13 -130.08)"/><path class="cls-3" d="M433.48,211.18a6.66,6.66,0,0,1,1.64-4.75,6.41,6.41,0,0,1,9.05-.09l.09.09a6.72,6.72,0,0,1,1.28,4.75v16.08h4.93q6,0,6,5.21t-6,5.21h-4.93v56.18a6.28,6.28,0,0,1-1.65,4.66,6.65,6.65,0,0,1-9.13,0,6.28,6.28,0,0,1-1.65-4.66V237.68h-4.93q-6,0-6-5.21t6-5.21h4.93Z" transform="translate(-13 -130.08)"/></svg>