<svg xmlns="http://www.w3.org/2000/svg" viewBox="0 0 68.43 26.55"><defs><style>.cls-1{fill:#302e2f;}.cls-2{fill:#f36f21;}.cls-3{fill:#fff;}</style></defs><title>Asset 2</title><g id="Layer_2" data-name="Layer 2"><g id="Layer_1-2" data-name="Layer 1"><rect class="cls-1" width="68.43" height="26.55" rx="12"/><rect class="cls-2" x="12.45" y="4.21" width="20.62" height="17.49" rx="7.53"/><path class="cls-3" d="M17.25,17.05a.72.72,0,0,1-.18.51.73.73,0,0,1-1,0,.72.72,0,0,1-.18-.51V7.78a.8.8,0,0,1,.17-.51.65.65,0,0,1,.54-.21h2.44a3.7,3.7,0,0,1,1.23.21,3.07,3.07,0,0,1,1.77,1.49,2.53,2.53,0,0,1,.27,1.18,3.56,3.56,0,0,1-.23,1.38,2.45,2.45,0,0,1-1.55,1.45,4.11,4.11,0,0,1-1.13.2l-.57,0,3.41,3.67a.8.8,0,0,1,.25.58.44.44,0,0,1-.17.36.62.62,0,0,1-.43.14.68.68,0,0,1-.34-.08,1.71,1.71,0,0,1-.26-.21L17.25,13Zm0-5.05h1.8a2.08,2.08,0,0,0,1.51-.47A2,2,0,0,0,21,10a1.65,1.65,0,0,0-.14-.7,1.77,1.77,0,0,0-.4-.58A2.07,2.07,0,0,0,19,8.2H17.25Z"/><path class="cls-3" d="M24.56,14.26a2.51,2.51,0,0,0,.16.92,2.14,2.14,0,0,0,.46.75,2.22,2.22,0,0,0,.74.49,2.57,2.57,0,0,0,1,.18,2.92,2.92,0,0,0,1.1-.17,3.81,3.81,0,0,0,.73-.37c.19-.14.36-.26.49-.37a.64.64,0,0,1,.38-.17.46.46,0,0,1,.33.15.62.62,0,0,1,.15.44.8.8,0,0,1-.27.52,3.22,3.22,0,0,1-.74.54,5.39,5.39,0,0,1-1,.41,4.09,4.09,0,0,1-1.15.16,3.79,3.79,0,0,1-1.65-.33,3.23,3.23,0,0,1-1.14-.88,3.62,3.62,0,0,1-.66-1.28,5.33,5.33,0,0,1-.21-1.5,4.51,4.51,0,0,1,.25-1.51,4,4,0,0,1,.7-1.28,3.23,3.23,0,0,1,1.13-.87,3.31,3.31,0,0,1,1.5-.33,3.17,3.17,0,0,1,1.46.34,3.4,3.4,0,0,1,1.08.86A4.14,4.14,0,0,1,30,12.18a4.45,4.45,0,0,1,.23,1.39.79.79,0,0,1-.15.52.76.76,0,0,1-.59.17Zm4.38-1a2.71,2.71,0,0,0-.13-.83,2.26,2.26,0,0,0-.38-.76,2,2,0,0,0-.66-.56,2,2,0,0,0-.95-.22,1.94,1.94,0,0,0-1,.19,2.08,2.08,0,0,0-.69.54,2.4,2.4,0,0,0-.4.78,3.76,3.76,0,0,0-.14.86Z"/><path class="cls-3" d="M35.34,7.78a.8.8,0,0,1,.17-.51.65.65,0,0,1,.54-.21h2.59a4.84,4.84,0,0,1,2.09.43,4.34,4.34,0,0,1,1.48,1.16,4.81,4.81,0,0,1,.88,1.68,6.6,6.6,0,0,1,.29,2,7.48,7.48,0,0,1-.3,2.19,5.16,5.16,0,0,1-.9,1.71,4.12,4.12,0,0,1-1.43,1.11,4.56,4.56,0,0,1-1.93.39H36.05a.65.65,0,0,1-.54-.21.8.8,0,0,1-.17-.51Zm1.32,8.82h1.89a3.28,3.28,0,0,0,1.59-.36,3,3,0,0,0,1-.95,4.2,4.2,0,0,0,.6-1.36A7,7,0,0,0,42,12.34a6.25,6.25,0,0,0-.19-1.57,3.83,3.83,0,0,0-.62-1.32,3.09,3.09,0,0,0-1.08-.91,3.66,3.66,0,0,0-1.62-.34h-1.8Z"/><path class="cls-3" d="M51.32,17.11a.56.56,0,0,1-.21.49.7.7,0,0,1-.41.14.68.68,0,0,1-.41-.14.58.58,0,0,1-.2-.49v-.54h0a2.92,2.92,0,0,1-1,.89,2.58,2.58,0,0,1-1.2.28,3.27,3.27,0,0,1-1.49-.33,3.37,3.37,0,0,1-1.1-.88,3.84,3.84,0,0,1-.68-1.28,4.78,4.78,0,0,1,0-3A3.84,3.84,0,0,1,45.29,11a3.54,3.54,0,0,1,1.1-.89,3.4,3.4,0,0,1,1.49-.33,2.53,2.53,0,0,1,1.2.28,3.91,3.91,0,0,1,1,.79h0v-.42a.6.6,0,0,1,.2-.5.77.77,0,0,1,.41-.15.72.72,0,0,1,.41.15.56.56,0,0,1,.21.49Zm-5.51-2.36a2.87,2.87,0,0,0,.37.92,2.17,2.17,0,0,0,.68.67,2.15,2.15,0,0,0,2,0,2.17,2.17,0,0,0,.68-.67,2.87,2.87,0,0,0,.37-.92,4.56,4.56,0,0,0,0-2,2.87,2.87,0,0,0-.37-.92,2.17,2.17,0,0,0-.68-.67,2.08,2.08,0,0,0-2,0,2.17,2.17,0,0,0-.68.67,2.87,2.87,0,0,0-.37.92,4.19,4.19,0,0,0,0,2Z"/><path class="cls-3" d="M53.48,8a.73.73,0,0,1,.18-.52.7.7,0,0,1,1,0A.73.73,0,0,1,54.8,8V9.76h.54q.66,0,.66.57t-.66.57H54.8v6.15a.69.69,0,0,1-.18.51.73.73,0,0,1-1,0,.69.69,0,0,1-.18-.51V10.9h-.54q-.66,0-.66-.57t.66-.57h.54Z"/></g></g></svg>