<svg id="Layer_3" data-name="Layer 3" xmlns="http://www.w3.org/2000/svg" viewBox="0 0 383.81 384"><defs><style>.cls-1{fill:#ff4500;}.cls-2{fill:#fff;}</style></defs><rect class="cls-1" width="383.81" height="384" rx="191.91"/><path class="cls-2" d="M700.07,325.06a12,12,0,0,1-3,8.5,11.36,11.36,0,0,1-19.66-8.5V170.59a13.35,13.35,0,0,1,2.84-8.5,10.85,10.85,0,0,1,9-3.5H729.9a62,62,0,0,1,20.5,3.5,51.21,51.21,0,0,1,29.49,24.83,42.17,42.17,0,0,1,4.5,19.66,59.56,59.56,0,0,1-3.83,23,40.84,40.84,0,0,1-25.83,24.16,68.17,68.17,0,0,1-18.83,3.33h-9.5l56.82,61.16a13.32,13.32,0,0,1,4.17,9.66,7.36,7.36,0,0,1-2.83,6,10.36,10.36,0,0,1-7.17,2.33,11.28,11.28,0,0,1-5.66-1.33,28.67,28.67,0,0,1-4.34-3.5l-67.32-73.82Zm0-84.15h30a34.68,34.68,0,0,0,25.16-7.83,33.32,33.32,0,0,0,7.33-25.5,27.51,27.51,0,0,0-2.33-11.66,29.49,29.49,0,0,0-6.67-9.67,34.53,34.53,0,0,0-24.33-8.66H700.07Z" transform="translate(-596.09 -64)"/><path class="cls-2" d="M821.88,278.57a41.8,41.8,0,0,0,2.67,15.33,35.69,35.69,0,0,0,7.66,12.5,37,37,0,0,0,12.33,8.16,42.82,42.82,0,0,0,16.67,3,48.63,48.63,0,0,0,18.32-2.83,63.54,63.54,0,0,0,12.17-6.17c3.16-2.33,6-4.33,8.16-6.16a10.71,10.71,0,0,1,6.34-2.84,7.67,7.67,0,0,1,5.49,2.5,10.3,10.3,0,0,1,2.5,7.33,13.3,13.3,0,0,1-4.5,8.67,53.77,53.77,0,0,1-12.33,9,89.48,89.48,0,0,1-16.66,6.83,68.61,68.61,0,0,1-19.16,2.67,63.2,63.2,0,0,1-27.5-5.5,53.87,53.87,0,0,1-19-14.67,60.22,60.22,0,0,1-11-21.33,88.74,88.74,0,0,1-3.5-25,75.35,75.35,0,0,1,4.17-25.16,66.64,66.64,0,0,1,11.66-21.33,53.9,53.9,0,0,1,18.83-14.5,55.31,55.31,0,0,1,25-5.5,52.81,52.81,0,0,1,24.32,5.67,56.69,56.69,0,0,1,18,14.33,69,69,0,0,1,10,20.33,74.17,74.17,0,0,1,3.83,23.16,13.19,13.19,0,0,1-2.5,8.67,12.68,12.68,0,0,1-9.83,2.83Zm73-16.67a45.11,45.11,0,0,0-2.16-13.83,37.67,37.67,0,0,0-6.33-12.66,32.56,32.56,0,0,0-26.83-13,32.37,32.37,0,0,0-16.66,3.17,34.69,34.69,0,0,0-11.5,9,40.07,40.07,0,0,0-6.67,13,62.69,62.69,0,0,0-2.33,14.33Z" transform="translate(-596.09 -64)"/></svg>